<svg version="1.0" xmlns="http://www.w3.org/2000/svg" width="2778.667" height="2778.667" viewBox="0 0 2084 2084"><path d="M884.5 320.6c-85 5.5-161.1 25.9-233.5 62.4-109.3 55.3-197.7 141.7-256.3 250.5-30.6 57-53.1 125-62.6 189.5-8.5 57.5-8.5 120.4 0 177 35.1 232.8 208 424.4 436.4 483.5 28.4 7.4 57 12.5 89.5 16.1 19.8 2.2 75.7 3 97.5 1.5 74.5-5.3 142.8-22.6 208.9-53.2 16.3-7.5 42.6-21.3 50.4-26.3l3.7-2.4 156.5 156.2c91.2 91.1 159.4 158.4 163.4 161.4 14.6 10.6 30.8 18.5 47.3 22.9 8.9 2.4 11.5 2.7 29.3 2.7 15.7.1 21-.3 27.5-1.8 30.7-7.2 59.3-24.3 79.3-47.6 13-15.1 22.5-31.3 28.6-48.8 5.4-15.5 7-25.4 7-42.7.1-27.8-7.7-51.1-25.1-75.9-4.3-6.1-44-46.4-160.5-163.1-85.1-85.3-154.8-155.4-154.8-155.7 0-.4 3.9-7.2 8.6-15 19.7-33 41.3-80.9 53.7-119.3 30.9-95.9 36.8-201.1 16.6-299.5-41.3-201.6-184.2-367-378.2-437.9-45.6-16.7-93.6-27.4-145.7-32.7-14.8-1.4-73.7-2.7-87.5-1.8zM941 504c89.2 5.7 171.6 39 240.2 97.2 13 10.9 39.4 37.8 50.1 50.8 64.6 79 97.6 177.6 92.6 277.7-5 103.5-46.9 197.8-120.2 270.6-66 65.5-147.7 104.7-242.7 116.4-20.4 2.5-68.6 2.5-89 0-38.8-4.8-70.4-12.7-105-26.4-37.2-14.7-73.4-35.7-105-60.9-17.3-13.8-49.6-46.1-63.2-63.2-48.8-61.3-77.1-128.7-87.5-208.7-2.8-21.6-2.5-74.1.5-96.1 6.9-50.8 19.4-91.5 41.8-135.4C626.9 581.9 780.5 493.9 941 504z"/><path d="M860 666.7c-3.6 1.9-6.5 4.3-8.5 7.1-2.6 3.9-3 5.3-3.3 12.5-.2 4.5 4.9 83.2 11.2 174.8 12.5 182.8 11.2 170.4 18.3 177.1 5.7 5.4 7.9 5.8 36.6 5.8h26.3l5.4-3.3c4.4-2.5 6-4.3 8.1-8.7 2.7-5.5 2.8-6.3 17.3-176.5 11.4-133.3 14.4-171.8 13.6-174.6-1.5-5.2-4.9-9.9-9.9-13.4l-4.3-3-52.7-.3-52.6-.3-5.5 2.8zm15 400.4c-1.4.6-3.6 2-4.8 3.2-5.1 4.8-5.2 5.2-5.2 41.9 0 38.3.1 38.8 7 43.5 3.3 2.3 3.5 2.3 41 2.3 52.2 0 48 4 48-46.1 0-34.2 0-34.6-2.2-37.9-1.3-1.8-3.6-4.3-5.1-5.4-2.8-2-4-2.1-39.5-2.3-23-.1-37.6.2-39.2.8z"/></svg>