<?xml version="1.0" standalone="no"?>
<!DOCTYPE svg PUBLIC "-//W3C//DTD SVG 20010904//EN"
 "http://www.w3.org/TR/2001/REC-SVG-20010904/DTD/svg10.dtd">
<svg version="1.0" xmlns="http://www.w3.org/2000/svg"
 width="2084.000000pt" height="2084.000000pt" viewBox="0 0 2084.000000 2084.000000"
 preserveAspectRatio="xMidYMid meet">
<metadata>
Created by potrace 1.11, written by Peter Selinger 2001-2013
</metadata>
<g transform="translate(0.000000,2084.000000) scale(0.100000,-0.100000)"
fill="#000000" stroke="none">
<path d="M8845 17634 c-850 -55 -1611 -259 -2335 -624 -1093 -553 -1977 -1417
-2563 -2505 -306 -570 -531 -1250 -626 -1895 -85 -575 -85 -1204 0 -1770 351
-2328 2080 -4244 4364 -4835 284 -74 570 -125 895 -161 198 -22 757 -30 975
-15 745 53 1428 226 2089 532 163 75 426 213 504 263 l37 24 1565 -1562 c912
-911 1594 -1584 1634 -1614 146 -106 308 -185 473 -229 89 -24 115 -27 293
-27 157 -1 210 3 275 18 307 72 593 243 793 476 130 151 225 313 286 488 54
155 70 254 70 427 1 278 -77 511 -251 759 -43 61 -440 464 -1605 1631 -851
853 -1548 1554 -1548 1557 0 4 39 72 86 150 197 330 413 809 537 1193 309 959
368 2011 166 2995 -413 2016 -1842 3670 -3782 4379 -456 167 -936 274 -1457
327 -148 14 -737 27 -875 18z m565 -1834 c892 -57 1716 -390 2402 -972 130
-109 394 -378 501 -508 646 -790 976 -1776 926 -2777 -50 -1035 -469 -1978
-1202 -2706 -660 -655 -1477 -1047 -2427 -1164 -204 -25 -686 -25 -890 0 -388
48 -704 127 -1050 264 -372 147 -734 357 -1050 609 -173 138 -496 461 -632
632 -488 613 -771 1287 -875 2087 -28 216 -25 741 5 961 69 508 194 915 418
1354 733 1441 2269 2321 3874 2220z"/>
<path d="M8600 14173 c-36 -19 -65 -43 -85 -71 -26 -39 -30 -53 -33 -125 -2
-45 49 -832 112 -1748 125 -1828 112 -1704 183 -1771 57 -54 79 -58 366 -58
l263 0 54 33 c44 25 60 43 81 87 27 55 28 63 173 1765 114 1333 144 1718 136
1746 -15 52 -49 99 -99 134 l-43 30 -527 3 -526 3 -55 -28z"/>
<path d="M8750 10169 c-14 -6 -36 -20 -48 -32 -51 -48 -52 -52 -52 -419 0
-383 1 -388 70 -435 33 -23 35 -23 410 -23 522 0 480 -40 480 461 0 342 0 346
-22 379 -13 18 -36 43 -51 54 -28 20 -40 21 -395 23 -230 1 -376 -2 -392 -8z"/>
</g>
</svg>
